<svg width="81" height="33" viewBox="0 0 81 33" fill="none" xmlns="http://www.w3.org/2000/svg">
<path d="M10.7169 8.039C12.3994 6.99009 14.1504 6.05634 15.959 5.24316L20.0945 9.37867H61.6243C66.8919 9.37867 72.067 10.7532 76.6406 13.3669C78.125 14.2135 79.0399 15.7916 79.0399 17.4998V25.4547H8.03754L3.69705 23.7132C2.27298 23.1439 1.33923 21.764 1.33923 20.2301V9.37867L10.7169 8.039Z" fill="#FFBB56"/>
<path d="M15.959 5.24232C21.6525 2.67287 27.8257 1.34255 34.0726 1.33984H35.6507C43.0243 1.33984 50.2798 3.18987 56.7531 6.72126L61.6241 9.37782H20.0945L15.959 5.24232Z" fill="#EEEEEE"/>
<path d="M44.2083 9.37814H20.0942L15.9587 5.24264C19.0171 3.86816 22.2217 2.84593 25.5119 2.19629L44.2083 9.37814Z" fill="#EEEEEE"/>
<path d="M1.33923 12.0576H6.69788V14.7369H1.33923V12.0576Z" fill="#F5AE45"/>
<path d="M79.0399 20.0947V25.4534H8.03754L3.69705 23.7119C2.27298 23.1426 1.33923 21.7627 1.33923 20.2287V20.0947C1.33923 20.0947 79.0399 20.0947 79.0399 20.0947Z" fill="#E89F34"/>
<path d="M66.983 16.0762C71.4227 16.0762 75.021 19.6745 75.021 24.1141C75.021 28.5538 71.4227 32.1521 66.983 32.1521C62.5434 32.1521 58.945 28.5538 58.945 24.1141C58.945 19.6745 62.5434 16.0762 66.983 16.0762Z" fill="#EEEEEE"/>
<path d="M66.9832 26.7932C65.5034 26.7932 64.3038 25.5936 64.3038 24.1139C64.3038 22.6341 65.5034 21.4346 66.9832 21.4346C68.4629 21.4346 69.6625 22.6341 69.6625 24.1139C69.6625 25.5936 68.4629 26.7932 66.9832 26.7932Z" fill="#EEEEEE"/>
<path d="M16.0752 16.0762C20.5148 16.0762 24.1132 19.6745 24.1132 24.1141C24.1132 28.5538 20.5148 32.1521 16.0752 32.1521C11.6355 32.1521 8.03721 28.5538 8.03721 24.1141C8.03721 19.6745 11.6355 16.0762 16.0752 16.0762Z" fill="#EEEEEE"/>
<path d="M16.0757 26.7932C14.5959 26.7932 13.3964 25.5936 13.3964 24.1139C13.3964 22.6341 14.5959 21.4346 16.0757 21.4346C17.5554 21.4346 18.755 22.6341 18.755 24.1139C18.755 25.5936 17.5554 26.7932 16.0757 26.7932Z" fill="#EEEEEE"/>
<path d="M41.5289 12.0576H46.8876V14.7369H41.5289V12.0576Z" fill="#359D73"/>
<path d="M1.14944 8.05141L10.2497 6.75199C11.9082 5.73247 13.631 4.82013 15.4061 4.01901C21.2698 1.3638 27.6332 -0.00674919 34.0703 2.49898e-05H35.6512C43.2484 0.00544434 50.7237 1.9117 57.3953 5.54496L61.9877 8.05019C67.3638 8.11048 72.6354 9.53984 77.3068 12.2032C79.2051 13.2908 80.3759 15.311 80.38 17.4988V25.4537C80.38 26.1932 79.7798 26.7934 79.0403 26.7934H74.5417C73.0788 30.9678 68.5092 33.1648 64.3348 31.702C62.0373 30.8968 60.2314 29.0909 59.4262 26.7934H23.6343C22.1713 30.9678 17.6018 33.1648 13.4274 31.702C11.1298 30.8968 9.32397 29.0909 8.51879 26.7934H8.03783C7.86766 26.7934 7.6975 26.7613 7.53952 26.6983L3.20039 24.9568C1.26189 24.1891 -0.00813399 22.3136 -4.9711e-06 20.2291V9.37766C-4.9711e-06 8.71054 0.490312 8.14652 1.14944 8.05141ZM61.7331 25.1858C62.3253 28.0848 65.156 29.9549 68.0564 29.3629C70.9568 28.7708 72.8256 25.94 72.2335 23.0396C71.6413 20.1405 68.8106 18.2704 65.9102 18.8625C63.4157 19.3728 61.6232 21.5673 61.6246 24.1139C61.6247 24.4745 61.6609 24.8335 61.7331 25.1858ZM37.5107 24.1141H58.9453C58.9453 19.6744 62.5436 16.0761 66.9832 16.0761C71.4229 16.0761 75.0212 19.6744 75.0212 24.1141H77.7007V17.4988C77.6993 16.2717 77.0416 15.1383 75.9765 14.5287C71.6051 12.033 66.6592 10.7187 61.6247 10.7175H37.5107V24.1141V24.1141ZM37.5107 8.038H56.3705L56.112 7.89737C50.385 4.78395 44.0228 3.01968 37.5108 2.73828V8.038H37.5107ZM34.8314 2.67935H34.073C28.6742 2.67271 23.3249 3.69751 18.3105 5.69901L20.6495 8.03813H34.8314V2.67935ZM10.8258 25.1858C11.418 28.0848 14.25 29.9549 17.1491 29.3629C20.0482 28.7707 21.9183 25.9386 21.3262 23.0396C20.734 20.1405 17.902 18.2704 15.0029 18.8625C12.5085 19.3728 10.7159 21.5673 10.7173 24.1139C10.7173 24.4745 10.7535 24.8335 10.8258 25.1858ZM2.67932 12.057H6.69831V14.7363H2.67932V20.229C2.67526 21.2162 3.27816 22.1045 4.19579 22.4675L8.03797 24.0108C8.03797 23.8876 8.05409 23.7658 8.06208 23.6425C8.07008 23.5192 8.07278 23.3745 8.0862 23.2406C8.09961 23.1066 8.12644 22.9726 8.14784 22.8388C8.16925 22.7048 8.18537 22.5708 8.21219 22.449C8.23902 22.3272 8.2779 22.1918 8.31272 22.0645C8.34754 21.9373 8.37437 21.8086 8.41448 21.684C8.45472 21.5594 8.50295 21.4402 8.54847 21.3184C8.594 21.1964 8.63558 21.0706 8.68246 20.95C8.72934 20.8294 8.79234 20.7195 8.84856 20.6057C8.90479 20.4919 8.9598 20.3673 9.02267 20.2521C9.08567 20.137 9.15665 20.0391 9.21694 19.932C9.27723 19.8248 9.35094 19.7029 9.42721 19.593C9.50363 19.4831 9.57462 19.396 9.64833 19.297C9.72203 19.1978 9.80508 19.0813 9.89084 18.9782C9.9766 18.8751 10.0569 18.7946 10.14 18.7102C10.223 18.6258 10.3154 18.512 10.408 18.4181C10.5005 18.3242 10.5916 18.2506 10.684 18.1676C10.7764 18.0845 10.8755 17.9867 10.9774 17.8996C11.0792 17.8125 11.1824 17.7455 11.2842 17.6691C11.3859 17.5927 11.4878 17.511 11.595 17.44C11.7021 17.369 11.8227 17.306 11.9379 17.231C12.053 17.1559 12.1469 17.097 12.2553 17.0394C12.3638 16.9818 12.4992 16.9215 12.6223 16.8626C12.7456 16.8037 12.8421 16.7514 12.9559 16.7031C13.0697 16.6549 13.2239 16.604 13.3577 16.5557C13.4916 16.5075 13.5788 16.47 13.6926 16.4338C13.8453 16.3869 14.0021 16.3534 14.1575 16.3146C14.2592 16.2904 14.3571 16.2583 14.4603 16.2368C14.625 16.2033 14.7939 16.1845 14.9613 16.1604C15.0605 16.147 15.1556 16.1256 15.2546 16.1162C15.5226 16.0894 15.7905 16.0746 16.0719 16.0746C20.5088 16.0787 24.1059 19.6756 24.1099 24.1126H34.8312V10.7173H20.0949C19.74 10.7173 19.3983 10.5767 19.1478 10.3248L15.674 6.85103C14.2151 7.54497 12.7976 8.32062 11.4272 9.17403C11.2691 9.2732 11.0923 9.33742 10.9074 9.36425L2.67918 10.5392V12.057H2.67932Z" fill="#359D73"/>
</svg>
