<svg width="73" height="49" viewBox="0 0 73 49" fill="none" xmlns="http://www.w3.org/2000/svg">
<path d="M24.0449 7.21387V23.5526L28.5053 28.0009C28.7217 28.2292 28.854 28.5299 28.854 28.8545V33.6635H37.2698V7.21387H24.0449Z" fill="#EEEEEE"/>
<path d="M2.4039 26.449V28.8535H3.60611C4.2673 28.8535 4.80832 29.3946 4.80832 30.0558V38.4715H51.7565C52.2374 33.6265 55.6038 29.6229 60.1123 28.2042V25.2466C60.1123 24.5854 60.6533 24.0444 61.3145 24.0444H64.9213V21.6398H63.7191C63.178 21.6398 62.7092 21.2792 62.5649 20.7622C62.3485 20.0168 62.108 19.2594 61.8676 18.502L55.8443 21.5076C55.6759 21.5917 55.4956 21.6398 55.3033 21.6398H39.674V34.8647C39.674 35.5259 39.133 36.067 38.4718 36.067H27.6515C26.9903 36.067 26.4492 35.5259 26.4492 34.8647V29.3464L22.3495 25.2466H4.8086C4.8086 25.9078 4.26759 26.4488 3.60639 26.4488H2.4039V26.449Z" fill="#FFBB56"/>
<path d="M4.80852 10.8201V22.8426H21.6402V6.01107C21.6402 5.34988 22.1812 4.80886 22.8424 4.80886H51.3359L53.2234 3.54649C52.3217 2.92136 51.3839 2.5125 50.4342 2.4043H13.2243C8.58365 2.4043 4.80852 6.17943 4.80852 10.8201Z" fill="#FFBB56"/>
<path d="M53.0794 6.52747L56.3616 18.5621L61.0745 16.2057C59.4875 11.8896 57.4316 7.80195 55.0752 5.20508L53.0794 6.52747Z" fill="#EEEEEE"/>
<path d="M39.6742 7.21387V19.2365H54.0532L50.783 7.21387H39.6742Z" fill="#EEEEEE"/>
<path d="M64.3204 45.6846C61.3325 45.6846 58.9103 43.2624 58.9103 40.2744C58.9103 37.2865 61.3325 34.8643 64.3204 34.8643C67.3084 34.8643 69.7306 37.2865 69.7306 40.2744C69.7306 43.2624 67.3084 45.6846 64.3204 45.6846Z" fill="#EEEEEE"/>
<path d="M7.33319 40.875C7.8983 43.6161 10.3268 45.684 13.2242 45.684C16.1216 45.684 18.5503 43.6161 19.1152 40.875H7.33319Z" fill="#EEEEEE"/>
<path d="M64.3204 32.4619C68.6244 32.4619 72.1351 35.9725 72.1351 40.2766C72.1351 44.5807 68.6246 48.0914 64.3204 48.0914C60.0162 48.0914 56.5057 44.5808 56.5057 40.2766C56.5058 35.9726 60.0164 32.4619 64.3204 32.4619ZM64.3204 45.6868C67.3021 45.6868 69.7306 43.2583 69.7306 40.2766C69.7306 37.295 67.3021 34.8665 64.3204 34.8665C61.3388 34.8665 58.9102 37.295 58.9102 40.2766C58.9102 43.2583 61.3389 45.6868 64.3204 45.6868Z" fill="#359D73"/>
<path d="M1.20219 24.0452H2.4044V10.8203C2.4044 5.4582 6.3238 0.997921 11.4454 0.144271C11.6138 0.0480436 11.8181 0 12.0225 0H50.615C58.2854 0.781515 63.0223 13.9582 64.6212 19.2361H66.1241C66.7853 19.2361 67.3263 19.7771 67.3263 20.4383V25.2473C67.3263 25.9085 66.7853 26.4495 66.1241 26.4495H62.5173V27.7119C62.9141 27.6758 63.3108 27.6517 63.7196 27.6517C66.6771 27.6517 69.5265 28.7337 71.7386 30.7175C72.2315 31.1622 72.2676 31.9197 71.8348 32.4126C71.39 32.9056 70.6326 32.9537 70.1276 32.5089C68.3723 30.9219 66.088 30.0563 63.7196 30.0563C58.4176 30.0563 54.1014 34.3724 54.1014 39.6744C54.1014 40.3356 53.5604 40.8766 52.8992 40.8766H21.5444C20.9553 44.9522 17.4568 48.0901 13.2247 48.0901C8.99282 48.0901 5.49425 44.9522 4.90504 40.8766H3.60661C2.94541 40.8766 2.4044 40.3356 2.4044 39.6744V31.2586H1.20219C0.540992 31.2586 -2.70259e-05 30.7176 -2.70259e-05 30.0564V25.2474C-2.70259e-05 24.5862 0.540992 24.0452 1.20219 24.0452ZM50.4346 2.40456H13.2247C8.58396 2.40456 4.80896 6.1797 4.80896 10.8203V22.8429H21.6406V6.01134C21.6406 5.35014 22.1816 4.80913 22.8428 4.80913H51.3363L53.2238 3.54676C52.3223 2.92149 51.3845 2.51277 50.4346 2.40456ZM24.0452 7.21355V23.5522L28.5056 28.0005C28.722 28.2289 28.8543 28.5296 28.8543 28.8542V33.6632H37.2701V7.21355H24.0452ZM39.6745 7.21355V19.2361H54.0535L50.7833 7.21355H39.6745ZM55.0754 5.20587L53.0797 6.5284L56.3619 18.563L61.0748 16.2067C59.4877 11.8904 57.4318 7.80275 55.0754 5.20587ZM13.2249 45.6859C16.1223 45.6859 18.5509 43.618 19.1159 40.8769H7.3337C7.89881 43.618 10.3273 45.6859 13.2249 45.6859ZM2.40454 28.8542H3.60675C4.26794 28.8542 4.80896 29.3952 4.80896 30.0564V38.4722H51.7572C52.238 33.6271 55.6045 29.6236 60.1129 28.2048V25.2473C60.1129 24.5861 60.6539 24.0451 61.3151 24.0451H64.9219V21.6405H63.7197C63.1787 21.6405 62.7098 21.2798 62.5655 20.7629C62.3491 20.0175 62.1086 19.26 61.8683 18.5026L55.845 21.5082C55.6766 21.5923 55.4962 21.6405 55.3039 21.6405H39.6746V34.8654C39.6746 35.5266 39.1336 36.0676 38.4724 36.0676H27.6521C26.9909 36.0676 26.4499 35.5266 26.4499 34.8654V29.347L22.3501 25.2473H4.80924C4.80924 25.9085 4.26823 26.4495 3.60703 26.4495H2.40482V28.8542H2.40454Z" fill="#359D73"/>
<path d="M63.043 35.0352C61.9189 36.027 61.1951 37.4613 61.1951 39.0735C61.1951 42.0551 63.6236 44.4836 66.6053 44.4836C67.0477 44.4836 67.4709 44.4152 67.8833 44.3141C66.9288 45.1569 65.6904 45.686 64.321 45.686C61.3394 45.686 58.9109 43.2575 58.9109 40.2758C58.9109 37.7367 60.6782 35.6135 63.043 35.0352Z" fill="#EEEEEE"/>
<path d="M10.0185 40.877C10.9539 42.9941 13.0566 44.4837 15.5092 44.4837C16.067 44.4837 16.5997 44.3864 17.1143 44.2421C16.0635 45.139 14.7073 45.6861 13.225 45.6861C10.3276 45.6861 7.89896 43.6182 7.33399 40.8771H10.0185V40.877Z" fill="#EEEEEE"/>
<path d="M42.1273 7.21289V16.831H53.3997L54.0537 19.2356H39.6747V7.21289H42.1273Z" fill="#EEEEEE"/>
<path d="M60.129 13.8174C60.4584 14.6024 60.7769 15.3972 61.0752 16.2063L56.3623 18.5627L55.6757 16.0451L60.129 13.8174Z" fill="#EEEEEE"/>
<path d="M10.7433 2.7793C8.6105 4.30739 7.21344 6.80085 7.21344 9.61892V22.8438H4.80888V10.8213C4.80888 7.04374 7.30967 3.8409 10.7433 2.7793Z" fill="#E89F34"/>
<path d="M3.60649 26.4493C4.26769 26.4493 4.80871 25.9083 4.80871 25.2471H6.01092H7.21313C7.21313 26.4493 7.21313 26.9903 7.21313 27.6516V36.0674H24.0449H38.472H52.2799C52.0346 36.8428 51.8386 37.6387 51.7557 38.472H4.80871V30.0562C4.80871 29.395 4.26769 28.854 3.60649 28.854H2.40428V26.4494H3.60649V26.4493Z" fill="#E89F34"/>
<path d="M26.4493 7.21387V22.3503L30.9097 26.7986C31.1261 27.027 31.2584 27.3277 31.2584 27.6523V31.2591H37.2698V33.6636H28.854V28.8547C28.854 28.53 28.7217 28.2295 28.5053 28.001L24.0449 23.5527V7.21387H26.4493Z" fill="#EEEEEE"/>
</svg>
