<svg width="19" height="19" viewBox="0 0 19 19" fill="none" xmlns="http://www.w3.org/2000/svg">
<rect width="19" height="19" rx="9.5" fill="#359D73"/>
<path d="M9.53292 3C5.92675 3 3 5.92675 3 9.53292C3 13.1391 5.92675 16.0658 9.53292 16.0658C13.1391 16.0658 16.0658 13.1391 16.0658 9.53292C16.0658 5.92675 13.1391 3 9.53292 3ZM9.53292 4.95988C10.6174 4.95988 11.4928 5.83529 11.4928 6.91975C11.4928 8.00422 10.6174 8.87963 9.53292 8.87963C8.44846 8.87963 7.57305 8.00422 7.57305 6.91975C7.57305 5.83529 8.44846 4.95988 9.53292 4.95988ZM9.53292 14.2366C7.89969 14.2366 6.45592 13.4004 5.61317 12.133C5.63277 10.833 8.22634 10.1209 9.53292 10.1209C10.833 10.1209 13.4331 10.833 13.4527 12.133C12.6099 13.4004 11.1662 14.2366 9.53292 14.2366Z" fill="white"/>
</svg>
