<svg id="Group_3445" data-name="Group 3445" xmlns="http://www.w3.org/2000/svg" xmlns:xlink="http://www.w3.org/1999/xlink" viewBox="0 0 214.33 81.752">
  <defs>
    <style>
      .cls-1 {
        fill: #fff;
      }

      .cls-2 {
        clip-path: url(#clip-path);
      }
    </style>
    <clipPath id="clip-path">
      <path id="Path_266" data-name="Path 266" class="cls-1" d="M0-209.461H214.33v81.752H0Z" transform="translate(0 209.461)"/>
    </clipPath>
  </defs>
  <g id="Group_1342" data-name="Group 1342" class="cls-2">
    <g id="Group_1328" data-name="Group 1328" transform="translate(56.349 30.699)">
      <path id="Path_250" data-name="Path 250" class="cls-1" d="M-18.026-7.371a4.906,4.906,0,0,0-4.058-1.907c-2.4,0-3.545,1-3.545,2.273,0,1.492,1.76,1.907,3.814,2.152,3.57.44,6.894,1.369,6.894,5.452,0,3.814-3.374,5.452-7.187,5.452-3.5,0-6.185-1.076-7.457-4.205l2.69-1.394c.757,1.882,2.738,2.714,4.815,2.714,2.029,0,3.937-.709,3.937-2.567,0-1.613-1.687-2.274-3.961-2.518-3.5-.416-6.723-1.345-6.723-5.183,0-3.52,3.472-4.963,6.626-4.987,2.665,0,5.427.758,6.723,3.4Z" transform="translate(29.565 12.089)"/>
    </g>
    <g id="Group_1329" data-name="Group 1329" transform="translate(74.12 31.286)">
      <path id="Path_251" data-name="Path 251" class="cls-1" d="M-4.659,0V6.7A4.452,4.452,0,0,1-.895,4.889c3.423,0,4.939,2.323,4.939,5.867v6.356H1.062V10.782c0-2.2-1.149-3.129-2.738-3.129a3.089,3.089,0,0,0-2.983,3.3v6.16H-7.642V0Z" transform="translate(7.642)"/>
    </g>
    <g id="Group_1330" data-name="Group 1330" transform="translate(88.274 36.053)">
      <path id="Path_252" data-name="Path 252" class="cls-1" d="M-4.659-9.853A3.452,3.452,0,0,0-1.09-6.186c4.694,0,4.694-7.31,0-7.31A3.432,3.432,0,0,0-4.659-9.853m7.237-6.014h2.86V-3.814H2.626L2.48-5.574A4.582,4.582,0,0,1-1.432-3.448c-3.57.024-6.21-2.176-6.21-6.406,0-4.156,2.763-6.332,6.283-6.307A4.425,4.425,0,0,1,2.48-14.2Z" transform="translate(7.642 16.161)"/>
    </g>
    <g id="Group_1331" data-name="Group 1331" transform="translate(104.481 31.286)">
      <path id="Path_253" data-name="Path 253" class="cls-1" d="M-4.659,0V6.7A4.452,4.452,0,0,1-.895,4.889c3.423,0,4.939,2.323,4.939,5.867v6.356H1.062V10.782c0-2.2-1.149-3.129-2.738-3.129a3.089,3.089,0,0,0-2.983,3.3v6.16H-7.642V0Z" transform="translate(7.642)"/>
    </g>
    <path id="Path_254" data-name="Path 254" class="cls-1" d="M305.232-112.313h2.983v-12.1h-2.983Zm3.252-15.451a1.76,1.76,0,0,1-3.52,0,1.76,1.76,0,0,1,3.52,0" transform="translate(-185.937 160.712)"/>
    <g id="Group_1332" data-name="Group 1332" transform="translate(130.368 30.699)">
      <path id="Path_255" data-name="Path 255" class="cls-1" d="M-18.026-7.371a4.906,4.906,0,0,0-4.058-1.907c-2.4,0-3.545,1-3.545,2.273,0,1.492,1.76,1.907,3.814,2.152,3.57.44,6.894,1.369,6.894,5.452,0,3.814-3.374,5.452-7.187,5.452-3.5,0-6.185-1.076-7.457-4.205l2.69-1.394c.757,1.882,2.738,2.714,4.815,2.714,2.029,0,3.937-.709,3.937-2.567,0-1.613-1.687-2.274-3.961-2.518-3.5-.416-6.723-1.345-6.723-5.183,0-3.52,3.472-4.963,6.626-4.987,2.665,0,5.427.758,6.723,3.4Z" transform="translate(29.565 12.089)"/>
    </g>
    <g id="Group_1333" data-name="Group 1333" transform="translate(147.509 36.053)">
      <path id="Path_256" data-name="Path 256" class="cls-1" d="M-4.659-9.853A3.452,3.452,0,0,0-1.09-6.186c4.694,0,4.694-7.31,0-7.31A3.432,3.432,0,0,0-4.659-9.853m7.237-6.014h2.86V-3.814H2.626L2.48-5.574A4.582,4.582,0,0,1-1.432-3.448c-3.57.024-6.21-2.176-6.21-6.406,0-4.156,2.763-6.332,6.283-6.307A4.425,4.425,0,0,1,2.48-14.2Z" transform="translate(7.642 16.161)"/>
    </g>
    <g id="Group_1334" data-name="Group 1334" transform="translate(162.689 36.322)">
      <path id="Path_257" data-name="Path 257" class="cls-1" d="M-17.682,0l2.64,9.07L-12.279,0h3.3l-4.205,12.126h-3.472L-17.9,8.557l-1.076-4.034-1.076,4.034L-21.3,12.126h-3.472L-29,0h3.325l2.763,9.07L-20.3,0Z" transform="translate(29.001)"/>
    </g>
    <g id="Group_1335" data-name="Group 1335" transform="translate(183.65 36.053)">
      <path id="Path_258" data-name="Path 258" class="cls-1" d="M-4.659-9.853A3.452,3.452,0,0,0-1.09-6.186c4.694,0,4.694-7.31,0-7.31A3.432,3.432,0,0,0-4.659-9.853m7.237-6.014h2.86V-3.814H2.626L2.48-5.574A4.582,4.582,0,0,1-1.432-3.448c-3.57.024-6.21-2.176-6.21-6.406,0-4.156,2.763-6.332,6.283-6.307A4.425,4.425,0,0,1,2.48-14.2Z" transform="translate(7.642 16.161)"/>
    </g>
    <g id="Group_1336" data-name="Group 1336" transform="translate(199.857 36.029)">
      <path id="Path_259" data-name="Path 259" class="cls-1" d="M-4.316-.5-4.1.9A3.553,3.553,0,0,1-.7-.814,4.574,4.574,0,0,1,2.407.335L1.062,2.926a2.98,2.98,0,0,0-2.151-.782A2.781,2.781,0,0,0-4.1,5.2v6.357H-7.079V-.5Z" transform="translate(7.079 0.814)"/>
    </g>
    <path id="Path_260" data-name="Path 260" class="cls-1" d="M540.393-112.313h2.983v-12.1h-2.983Zm3.252-15.451a1.76,1.76,0,0,1-3.521,0,1.76,1.76,0,0,1,3.521,0" transform="translate(-329.315 160.712)"/>
    <g id="Group_1337" data-name="Group 1337" transform="translate(1.437 48.285)">
      <path id="Path_261" data-name="Path 261" class="cls-1" d="M-30.1-35.354a54.518,54.518,0,0,1-9.258-1.373c-1.449-.341-2.814-2.023-3.193-3.925l-2.176-16.035a1.5,1.5,0,0,0-1.689-1.286l-1.656.224a1.5,1.5,0,0,0-1.286,1.689l2.184,16.1c.005.04.012.08.02.12.707,3.745,3.472,6.9,6.725,7.661A58.443,58.443,0,0,0-28.02-30.6c-.553-1.843-1.448-3.092-2.085-4.758" transform="translate(49.376 57.985)"/>
    </g>
    <g id="Group_1338" data-name="Group 1338" transform="translate(0 0)">
      <path id="Path_262" data-name="Path 262" class="cls-1" d="M-71.409-59.6a5.8,5.8,0,0,0-5.512-1.229,91.264,91.264,0,0,1-33.51-.05,2.349,2.349,0,0,1-1.519-1.007,2.9,2.9,0,0,1-.447-2.175c0-.021.008-.043.011-.064l4.12-23.6c.389-2,1.83-3.783,3.371-4.168a55.927,55.927,0,0,1,22.888,0,5.454,5.454,0,0,1,3.471,4.2l3.2,14.622a1.677,1.677,0,0,0,1.962,1.333l1.3-.247a1.677,1.677,0,0,0,1.333-1.962l-3.2-14.645-.008-.041c-.815-3.882-3.634-7.025-7.017-7.821l-.091-.02a60.316,60.316,0,0,0-24.777,0l-.085.019c-3.355.789-6.207,4.033-6.934,7.888,0,.021-.008.043-.011.064L-117-64.893a7.6,7.6,0,0,0,1.2,5.664,6.987,6.987,0,0,0,4.551,2.952A95.7,95.7,0,0,0-76-56.246c.054-.01.107-.022.16-.036a1.416,1.416,0,0,1,1.264.116,1.606,1.606,0,0,1,.335,1.411l-.006.036-3.627,22.564c-.344,1.91-1.694,3.605-3.145,3.947a54.436,54.436,0,0,1-9.261,1.372c-.639,1.638-1.519,2.918-2.064,4.757a58.412,58.412,0,0,0,12.4-1.581c3.266-.769,6.013-3.934,6.679-7.7,0-.012,0-.024.006-.036l3.628-22.567A6.242,6.242,0,0,0-71.409-59.6" transform="translate(117.12 97.753)"/>
    </g>
    <g id="Group_1339" data-name="Group 1339" transform="translate(18.046 60.569)">
      <path id="Path_263" data-name="Path 263" class="cls-1" d="M-8.971-5.973A2.257,2.257,0,0,0-10.891-3.7,10.546,10.546,0,0,0-9.444,1.657l.2.391a.293.293,0,0,0,.526,0q.113-.232.225-.459A10.727,10.727,0,0,0-7.046-3.833a2.15,2.15,0,0,0-1.925-2.14m-.005,17.36a2.363,2.363,0,0,1-2.4-2.376,10.893,10.893,0,0,0-1.484-5.641,14.223,14.223,0,0,1-1.853-7.056A6.077,6.077,0,0,1-9-9.8h.031A5.937,5.937,0,0,1-3.223-3.833,14.416,14.416,0,0,1-5.069,3.282a11.243,11.243,0,0,0-1.505,5.73,2.364,2.364,0,0,1-2.4,2.376" transform="translate(14.714 9.796)"/>
    </g>
    <g id="Group_1340" data-name="Group 1340" transform="translate(20.925 52.059)">
      <path id="Path_264" data-name="Path 264" class="cls-1" d="M-4.477,0A2.869,2.869,0,0,0-7.343,2.866,2.869,2.869,0,0,0-4.477,5.732,2.869,2.869,0,0,0-1.611,2.866,2.869,2.869,0,0,0-4.477,0" transform="translate(7.343)"/>
    </g>
    <g id="Group_1341" data-name="Group 1341" transform="translate(17.922 46.275)">
      <path id="Path_265" data-name="Path 265" class="cls-1" d="M-18.33-2.5a1.722,1.722,0,0,0-1.843-1.6c-.026,0-2.247.187-4.025.187-1.941,0-3.985-.185-4.009-.187a1.727,1.727,0,0,0-1.852,1.588A1.725,1.725,0,0,0-28.472-.657c.1.008,2.2.2,4.274.2,1.9,0,4.16-.189,4.272-.2A1.724,1.724,0,0,0-18.33-2.5" transform="translate(30.064 4.102)"/>
    </g>
  </g>
</svg>
