<svg xmlns="http://www.w3.org/2000/svg" viewBox="0 0 82.19 73.372">
  <defs>
    <style>
      .cls-1 {
        fill: #44c868;
      }

      .cls-2 {
        fill: #4ce166;
      }

      .cls-3 {
        fill: #ffdb56;
      }

      .cls-4 {
        fill: #a8eefc;
      }

      .cls-5 {
        fill: #ffbb24;
      }

      .cls-6 {
        fill: #ff4a4a;
      }

      .cls-7 {
        fill: #e7343f;
      }

      .cls-8 {
        fill: #1ea4e9;
      }
    </style>
  </defs>
  <g id="map-3" transform="translate(0 -27.465)">
    <g id="Group_3317" data-name="Group 3317" transform="translate(21.052 53.814)">
      <path id="Path_1112" data-name="Path 1112" class="cls-1" d="M386.429,237.211l-6.457-35.575a1.2,1.2,0,0,0-.6-.838l-16.252-9.039a1.2,1.2,0,0,0-.68-.146l2.957,38.143-.1.044,19.45,8.726a1.206,1.206,0,0,0,1.681-1.314Z" transform="translate(-325.31 -191.608)"/>
      <path id="Path_1113" data-name="Path 1113" class="cls-1" d="M151.185,200.4l-16.622-8.657a1.2,1.2,0,0,0-.638-.132,1.247,1.247,0,0,1,.173,0l-2.957,38.143,19.549,8.77a1.209,1.209,0,0,0,.494.106h0Z" transform="translate(-131.142 -191.607)"/>
    </g>
    <g id="Group_3318" data-name="Group 3318" transform="translate(0 53.815)">
      <path id="Path_1114" data-name="Path 1114" class="cls-2" d="M24.009,191.613a1.2,1.2,0,0,0-.68.146L7.077,200.8a1.2,1.2,0,0,0-.6.838L.02,237.212A1.206,1.206,0,0,0,1.7,238.526l19.344-8.678Z" transform="translate(0 -191.61)"/>
      <path id="Path_1115" data-name="Path 1115" class="cls-2" d="M273.086,191.628a1.2,1.2,0,0,0-.465.131L256,200.417v38.231h0a1.205,1.205,0,0,0,.494-.106l19.549-8.77Z" transform="translate(-214.905 -191.625)"/>
    </g>
    <path id="Path_1116" data-name="Path 1116" class="cls-3" d="M21.295,269.911l-1.312,7.227,19.423-10.259.451-5.817.075-.965Z" transform="translate(-16.775 -195.288)"/>
    <path id="Path_1117" data-name="Path 1117" class="cls-4" d="M22.806,288.294l-.175,2.256L3.208,300.808.02,318.375A1.206,1.206,0,0,0,1.7,319.69l19.344-8.678,1.761-22.718Z" transform="translate(0 -218.959)"/>
    <g id="Group_3319" data-name="Group 3319" transform="translate(22.631 57.95)">
      <path id="Path_1118" data-name="Path 1118" class="cls-5" d="M159.446,262.663,141.5,260.1l-.526,6.782,18.464,28.041v-10.2l-11.018-17.349,11.023,1.318Z" transform="translate(-140.977 -253.238)"/>
      <path id="Path_1119" data-name="Path 1119" class="cls-5" d="M380.467,221.712l-7.807-4.342-7.391,1.727.092,1.194.365,4.709Z" transform="translate(-329.264 -217.37)"/>
    </g>
    <path id="Path_1120" data-name="Path 1120" class="cls-3" d="M274.679,242.487l-.7-9.029h0l-.413-5.329-17.536,7.7v6.03l11.455-4.981Z" transform="translate(-214.93 -168.451)"/>
    <path id="Path_1121" data-name="Path 1121" class="cls-5" d="M391.2,298.735l-1.622-8.936-21.456-24.9.656,8.456,22,26.522A1.2,1.2,0,0,0,391.2,298.735Z" transform="translate(-309.026 -199.319)"/>
    <path id="Path_1122" data-name="Path 1122" class="cls-6" d="M168.236,27.465a16.887,16.887,0,0,0-16.875,16.861c0,5.751,2.73,11.926,8.116,18.352A57.673,57.673,0,0,0,167.5,70.56a1.207,1.207,0,0,0,1.477,0,57.684,57.684,0,0,0,8.021-7.883c5.385-6.426,8.116-12.6,8.116-18.352A16.887,16.887,0,0,0,168.236,27.465Zm6.249,16.861a6.249,6.249,0,1,1-6.249-6.244A6.247,6.247,0,0,1,174.485,44.326Z" transform="translate(-127.063)"/>
    <path id="Path_1123" data-name="Path 1123" class="cls-7" d="M245.1,27.465a16.97,16.97,0,0,0-2.177.14,16.891,16.891,0,0,1,14.7,16.721c0,5.751-2.73,11.926-8.116,18.352a60.35,60.35,0,0,1-6.582,6.689c.843.731,1.38,1.148,1.438,1.194a1.207,1.207,0,0,0,1.477,0,57.683,57.683,0,0,0,8.021-7.883c5.385-6.426,8.116-12.6,8.116-18.352A16.887,16.887,0,0,0,245.1,27.465Z" transform="translate(-203.926 0)"/>
    <path id="Path_1124" data-name="Path 1124" class="cls-3" d="M256.494,424.8l7.269-3.261L256,413.507v11.4h0A1.2,1.2,0,0,0,256.494,424.8Z" transform="translate(-214.905 -324.072)"/>
    <g id="Group_3320" data-name="Group 3320" transform="translate(21.052 62.292)">
      <path id="Path_1125" data-name="Path 1125" class="cls-8" d="M384.738,245.97a1.205,1.205,0,0,0-.6-.838l-1.279-.712-14.741,3.287h0l21.455,24.9Z" transform="translate(-330.077 -244.42)"/>
      <path id="Path_1126" data-name="Path 1126" class="cls-8" d="M151.183,331.592h0v-1.205l-18.464-28.041-1.579,20.37,19.549,8.77A1.206,1.206,0,0,0,151.183,331.592Z" transform="translate(-131.14 -293.047)"/>
    </g>
  </g>
</svg>
