<svg xmlns="http://www.w3.org/2000/svg" viewBox="0 0 50.313 62.546">
  <defs>
    <style>
      .cls-1 {
        fill: #506366;
      }

      .cls-2 {
        fill: #3a484a;
      }

      .cls-3 {
        fill: #58b78c;
      }

      .cls-4 {
        fill: #b8b8b8;
      }

      .cls-5 {
        fill: #46926f;
      }

      .cls-6 {
        fill: #999;
      }

      .cls-7 {
        fill: #efedee;
      }
    </style>
  </defs>
  <g id="calculator" transform="translate(-50.069)">
    <path id="Path_1150" data-name="Path 1150" class="cls-1" d="M95.111,0H55.34a5.271,5.271,0,0,0-5.271,5.271v52a5.271,5.271,0,0,0,5.271,5.271H95.111a5.271,5.271,0,0,0,5.271-5.271v-52A5.27,5.27,0,0,0,95.111,0Z"/>
    <path id="Path_1151" data-name="Path 1151" class="cls-2" d="M57.62,57.275v-52A5.271,5.271,0,0,1,62.891,0H55.34a5.271,5.271,0,0,0-5.271,5.271v52a5.271,5.271,0,0,0,5.271,5.271h7.551A5.27,5.27,0,0,1,57.62,57.275Z"/>
    <path id="Path_1152" data-name="Path 1152" class="cls-3" d="M87.163,54.512a.843.843,0,0,1-.842-.842V37.093a.843.843,0,0,1,.842-.842h39.771a.843.843,0,0,1,.842.842V53.669a.843.843,0,0,1-.842.842H87.163Z" transform="translate(-31.823 -31.823)"/>
    <g id="Group_3326" data-name="Group 3326" transform="translate(54.498 26.4)">
      <path id="Path_1153" data-name="Path 1153" class="cls-4" d="M295.853,216.11H281.608a1.786,1.786,0,0,0-1.786,1.786v10.219a1.786,1.786,0,0,0,1.786,1.786h14.245a1.786,1.786,0,0,0,1.786-1.786V217.9A1.786,1.786,0,0,0,295.853,216.11Z" transform="translate(-256.184 -216.11)"/>
      <path id="Path_1154" data-name="Path 1154" class="cls-4" d="M102.352,216.11H88.107a1.786,1.786,0,0,0-1.786,1.786v10.219a1.786,1.786,0,0,0,1.786,1.786h14.245a1.786,1.786,0,0,0,1.786-1.786V217.9A1.786,1.786,0,0,0,102.352,216.11Z" transform="translate(-86.321 -216.11)"/>
      <path id="Path_1155" data-name="Path 1155" class="cls-4" d="M295.853,364.916H281.608a1.786,1.786,0,0,0-1.786,1.786v10.219a1.786,1.786,0,0,0,1.786,1.786h14.245a1.786,1.786,0,0,0,1.786-1.786V366.7A1.786,1.786,0,0,0,295.853,364.916Z" transform="translate(-256.184 -346.738)"/>
      <path id="Path_1156" data-name="Path 1156" class="cls-4" d="M102.352,364.916H88.107a1.786,1.786,0,0,0-1.786,1.786v10.219a1.786,1.786,0,0,0,1.786,1.786h14.245a1.786,1.786,0,0,0,1.786-1.786V366.7A1.786,1.786,0,0,0,102.352,364.916Z" transform="translate(-86.321 -346.738)"/>
    </g>
    <path id="Path_1157" data-name="Path 1157" class="cls-5" d="M87.163,36.251a.843.843,0,0,0-.842.842V53.669a.843.843,0,0,0,.842.842h2.28V37.093a5.3,5.3,0,0,1,.068-.842Z" transform="translate(-31.823 -31.823)"/>
    <g id="Group_3327" data-name="Group 3327" transform="translate(54.498 26.4)">
      <path id="Path_1158" data-name="Path 1158" class="cls-6" d="M88.107,216.109a1.786,1.786,0,0,0-1.786,1.786v10.219a1.786,1.786,0,0,0,1.786,1.786h1.336V216.109H88.107Z" transform="translate(-86.321 -216.109)"/>
      <path id="Path_1159" data-name="Path 1159" class="cls-6" d="M89.443,364.916H88.107a1.786,1.786,0,0,0-1.786,1.786v10.219a1.786,1.786,0,0,0,1.786,1.786h1.451a5.289,5.289,0,0,1-.114-1.095v-12.7Z" transform="translate(-86.321 -346.738)"/>
    </g>
    <g id="Group_3329" data-name="Group 3329" transform="translate(59.73 29.62)">
      <path id="Path_1163" data-name="Path 1163" class="cls-7" d="M131.709,248.989v-1.718h-1.718c-.5,0-.833-.443-.833-1.116,0-.638.337-1.134.833-1.134h1.718v-1.7a1.049,1.049,0,0,1,1.134-.85,1,1,0,0,1,1.116.85v1.7h1.7a1.049,1.049,0,0,1,.85,1.134,1,1,0,0,1-.85,1.116h-1.7v1.718c0,.5-.443.833-1.116.833C132.205,249.821,131.709,249.485,131.709,248.989Z" transform="translate(-129.158 -242.47)"/>
      <path id="Path_1164" data-name="Path 1164" class="cls-7" d="M140.361,400.94l-1.215-1.215,1.2-1.2a1,1,0,0,0-.188-1.39,1.049,1.049,0,0,0-1.4-.2l-1.2,1.2-1.2-1.2a1,1,0,0,0-1.39.188,1.049,1.049,0,0,0-.2,1.4l1.2,1.2-1.215,1.215c-.351.351-.238.939.213,1.39.476.476,1.027.551,1.378.2l1.215-1.215,1.215,1.215c.351.351.939.238,1.39-.213C140.637,401.841,140.712,401.29,140.361,400.94Z" transform="translate(-133.885 -377.885)"/>
      <path id="Path_1165" data-name="Path 1165" class="cls-7" d="M327.844,263.352h4.606a1.049,1.049,0,0,1,.85,1.134,1,1,0,0,1-.85,1.116h-4.606c-.5,0-.833-.443-.833-1.116C327.011,263.848,327.348,263.352,327.844,263.352Z" transform="translate(-302.841 -260.801)"/>
      <path id="Path_1166" data-name="Path 1166" class="cls-7" d="M327.845,397.44h4.606a1.049,1.049,0,0,1,.85,1.134,1,1,0,0,1-.85,1.116h-4.606c-.5,0-.833-.443-.833-1.116C327.012,397.936,327.349,397.44,327.845,397.44Zm0,3.6h4.606a1.049,1.049,0,0,1,.85,1.134,1,1,0,0,1-.85,1.116h-4.606c-.5,0-.833-.443-.833-1.116C327.012,401.532,327.349,401.036,327.845,401.036Z" transform="translate(-302.842 -378.509)"/>
    </g>
  </g>
</svg>
