<svg id="help" xmlns="http://www.w3.org/2000/svg" viewBox="0 0 62.286 62.286">
  <defs>
    <style>
      .cls-1 {
        fill: #e4e7e7;
      }

      .cls-2 {
        fill: #e2574c;
      }

      .cls-3 {
        fill: #d95449;
      }

      .cls-4 {
        fill: #e5685e;
      }

      .cls-5 {
        fill: #efefef;
      }

      .cls-6 {
        fill: #e6e6e6;
      }

      .cls-7 {
        fill: #f1f1f1;
      }
    </style>
  </defs>
  <path id="Path_1179" data-name="Path 1179" class="cls-1" d="M61.016,36.905l-.146-2,1.265-1.265A14.348,14.348,0,0,0,41.843,13.353l-1.265,1.265a13.269,13.269,0,0,0-2-.146l2.19-2.19A15.862,15.862,0,1,1,63.206,34.715ZM34.788,14.667,33.522,13.4A14.348,14.348,0,1,0,13.231,33.694L14.5,34.959a13.269,13.269,0,0,0-.146,2l-2.19-2.19A15.862,15.862,0,0,1,34.593,12.332l2.19,2.19A13.251,13.251,0,0,0,34.788,14.667ZM14.3,38.755l.146,2-1.265,1.265A14.331,14.331,0,1,0,33.425,62.306l1.265-1.265a13.268,13.268,0,0,0,2,.146l-2.19,2.19A15.828,15.828,0,1,1,12.112,40.993ZM40.53,60.993l1.265,1.265A14.331,14.331,0,1,0,62.038,41.966L60.773,40.7a13.269,13.269,0,0,0,.146-2l2.19,2.19A15.828,15.828,0,1,1,40.724,63.28l-2.19-2.19A8.989,8.989,0,0,0,40.53,60.993Z" transform="translate(-6.516 -6.687)"/>
  <path id="Path_1180" data-name="Path 1180" class="cls-2" d="M31.143,0A31.143,31.143,0,1,0,62.286,31.143,31.172,31.172,0,0,0,31.143,0Zm0,46.715A15.572,15.572,0,1,1,46.715,31.143,15.555,15.555,0,0,1,31.143,46.715Z"/>
  <path id="Path_1181" data-name="Path 1181" class="cls-3" d="M115.023,95.705a19.318,19.318,0,1,0,19.318,19.318A19.334,19.334,0,0,0,115.023,95.705Zm0,34.89a15.572,15.572,0,1,1,15.572-15.572A15.555,15.555,0,0,1,115.023,130.595Z" transform="translate(-83.88 -83.88)"/>
  <path id="Path_1182" data-name="Path 1182" class="cls-4" d="M62.21,35.446A26.763,26.763,0,1,0,88.974,62.209,26.748,26.748,0,0,0,62.21,35.446Zm0,51.581A24.817,24.817,0,1,1,87.028,62.21,24.8,24.8,0,0,1,62.21,87.027Z" transform="translate(-31.067 -31.067)"/>
  <path id="Path_1183" data-name="Path 1183" class="cls-5" d="M67.041,88.062a15.557,15.557,0,0,1-6.569-6.569L49.231,92.783A31.141,31.141,0,0,0,55.8,99.352ZM81.493,60.472a15.292,15.292,0,0,1,6.569,6.569L99.352,55.8a32.327,32.327,0,0,0-6.569-6.569ZM49.231,55.8,60.472,67.041a15.292,15.292,0,0,1,6.569-6.569L55.8,49.231A32.327,32.327,0,0,0,49.231,55.8ZM99.352,92.783,88.111,81.542a15.292,15.292,0,0,1-6.569,6.569L92.783,99.352A32.326,32.326,0,0,0,99.352,92.783Z" transform="translate(-43.148 -43.148)"/>
  <path id="Path_1184" data-name="Path 1184" class="cls-6" d="M144.674,118.154l-2.725,2.725a15.292,15.292,0,0,1,6.569,6.569l2.725-2.725A19.723,19.723,0,0,0,144.674,118.154Zm-23.8,23.747-2.725,2.774a19.723,19.723,0,0,0,6.569,6.569l2.725-2.725A16.236,16.236,0,0,1,120.879,141.9Zm21.07,6.618,2.725,2.725a19.722,19.722,0,0,0,6.569-6.569l-2.725-2.725A16.415,16.415,0,0,1,141.949,148.518ZM127.5,120.928l-2.774-2.774a20.18,20.18,0,0,0-6.569,6.569l2.725,2.725A15.833,15.833,0,0,1,127.5,120.928Z" transform="translate(-103.556 -103.556)"/>
  <path id="Path_1185" data-name="Path 1185" class="cls-7" d="M75.847,110.349l-1.411,1.411a27.17,27.17,0,0,0,6.569,6.569l1.411-1.411A25.552,25.552,0,0,1,75.847,110.349Zm41.07,0a24.809,24.809,0,0,1-6.569,6.569l1.411,1.411a28.063,28.063,0,0,0,6.569-6.569ZM75.847,82.417a24.809,24.809,0,0,1,6.569-6.569l-1.362-1.363a28.063,28.063,0,0,0-6.569,6.569Zm41.07,0,1.411-1.411a28.063,28.063,0,0,0-6.569-6.569l-1.411,1.411A25.551,25.551,0,0,1,116.917,82.417Z" transform="translate(-65.239 -65.24)"/>
</svg>
