<svg xmlns="http://www.w3.org/2000/svg" viewBox="0 0 55.695 55.695">
  <defs>
    <style>
      .cls-1 {
        fill: #ed4720;
      }

      .cls-2 {
        fill: #edcf7d;
      }

      .cls-3 {
        fill: #3f4e56;
      }

      .cls-4 {
        fill: #d3d3d3;
      }
    </style>
  </defs>
  <g id="reliability" transform="translate(-1.178 -1.178)">
    <path id="Path_1167" data-name="Path 1167" class="cls-1" d="M40,17.6h3.841C54.635,17.6,63.423,15.1,65.927,8c2.625,6.972,12.378,9.6,23.046,9.6h2.881V53.734A9.962,9.962,0,0,1,81.892,63.7H49.962A9.962,9.962,0,0,1,40,53.734Z" transform="translate(-34.981 -6.822)"/>
    <path id="Path_1168" data-name="Path 1168" class="cls-2" d="M151.371,163.326a3.36,3.36,0,0,0-3.339-3.36,3.362,3.362,0,0,0,.436-6.692.032.032,0,0,1,0-.062,3.362,3.362,0,0,0,2.888-3.648,3.5,3.5,0,0,0-3.546-3.042H135.242l3.47-7.682a7.33,7.33,0,0,0-.346-4.326,2.847,2.847,0,0,0-1.176-1.33l-.041-.025a3.013,3.013,0,0,0-4.472,1.521q-.292.712-.513,1.452l-4.075,7.432a3.538,3.538,0,0,1-.269.561l-.375.635a3.584,3.584,0,0,1-3.087,1.762H112v26.887h35.825a3.5,3.5,0,0,0,3.546-3.043,3.374,3.374,0,0,0-2.9-3.648.032.032,0,0,1,0-.062,3.361,3.361,0,0,0,2.9-3.329Z" transform="translate(-98.338 -116.535)"/>
    <path id="Path_1169" data-name="Path 1169" class="cls-3" d="M8,248H20.483v26.887H8Z" transform="translate(-6.822 -218.014)"/>
    <circle id="Ellipse_670" data-name="Ellipse 670" class="cls-4" cx="1.921" cy="1.921" r="1.921" transform="translate(5.98 49.192)"/>
    <path id="Path_1171" data-name="Path 1171" d="M42.881,405.762A2.881,2.881,0,1,0,40,402.881,2.884,2.884,0,0,0,42.881,405.762Zm0-3.841a.96.96,0,1,1-.96.96A.961.961,0,0,1,42.881,401.921Z" transform="translate(-34.981 -351.769)"/>
    <path id="Path_1172" data-name="Path 1172" d="M71.865,78.435h-6.9a.96.96,0,0,0-.96.96V89h1.921V80.355h5.944A21.719,21.719,0,0,0,85.74,75.332l-1.229-1.476a19.793,19.793,0,0,1-12.647,4.579Z" transform="translate(-56.1 -64.773)"/>
    <path id="Path_1173" data-name="Path 1173" d="M287.66,78.427h-6.9a19.789,19.789,0,0,1-12.647-4.579l-1.229,1.476a21.717,21.717,0,0,0,13.876,5.024H286.7V88.99h1.921v-9.6A.96.96,0,0,0,287.66,78.427Z" transform="translate(-234.627 -64.766)"/>
  </g>
</svg>
