<svg id="track-2" xmlns="http://www.w3.org/2000/svg" viewBox="0 0 60.746 60.746">
  <defs>
    <style>
      .cls-1 {
        fill: #ff7754;
      }

      .cls-2 {
        fill: #ffcd00;
      }

      .cls-3 {
        fill: #231f20;
      }
    </style>
  </defs>
  <circle id="Ellipse_671" data-name="Ellipse 671" class="cls-1" cx="4.05" cy="4.05" r="4.05" transform="translate(1.012 1.012)"/>
  <path id="Path_1215" data-name="Path 1215" class="cls-2" d="M232.2,8A16.2,16.2,0,0,0,216,24.2c0,8.947,16.2,30.373,16.2,30.373S248.4,33.146,248.4,24.2A16.2,16.2,0,0,0,232.2,8Zm0,22.274a6.075,6.075,0,1,1,6.075-6.075A6.075,6.075,0,0,1,232.2,30.274Z" transform="translate(-188.664 -6.988)"/>
  <circle id="Ellipse_672" data-name="Ellipse 672" class="cls-1" cx="6.075" cy="6.075" r="6.075" transform="translate(37.46 11.137)"/>
  <g id="Group_3380" data-name="Group 3380">
    <path id="Path_1216" data-name="Path 1216" class="cls-3" d="M337.012,404.05A1.012,1.012,0,0,1,336,403.037v-2.025a1.012,1.012,0,0,1,2.025,0v2.025A1.013,1.013,0,0,1,337.012,404.05Z" transform="translate(-293.478 -349.378)"/>
    <path id="Path_1217" data-name="Path 1217" class="cls-3" d="M323.037,452.05h-2.025a1.012,1.012,0,0,1,0-2.025h1.012v-1.012a1.012,1.012,0,1,1,2.025,0v2.025A1.013,1.013,0,0,1,323.037,452.05Z" transform="translate(-279.502 -391.303)"/>
    <path id="Path_1218" data-name="Path 1218" class="cls-3" d="M106.01,466.025h-3.825a1.012,1.012,0,1,1,0-2.025h3.825a1.012,1.012,0,1,1,0,2.025Zm-7.65,0H94.536a1.012,1.012,0,1,1,0-2.025H98.36a1.012,1.012,0,1,1,0,2.025Zm-7.65,0H86.886a1.012,1.012,0,1,1,0-2.025H90.71a1.012,1.012,0,1,1,0,2.025Zm-7.649,0H79.236a1.012,1.012,0,1,1,0-2.025h3.825a1.012,1.012,0,1,1,0,2.025Z" transform="translate(-68.324 -405.279)"/>
    <path id="Path_1219" data-name="Path 1219" class="cls-3" d="M35.037,452.05H33.012A1.012,1.012,0,0,1,32,451.037v-2.025a1.012,1.012,0,1,1,2.025,0v1.012h1.012a1.012,1.012,0,1,1,0,2.025Z" transform="translate(-27.95 -391.303)"/>
    <path id="Path_1220" data-name="Path 1220" class="cls-3" d="M33.012,153.585A1.012,1.012,0,0,1,32,152.573V148.34a1.012,1.012,0,0,1,2.025,0v4.233A1.012,1.012,0,0,1,33.012,153.585Zm0-8.467A1.012,1.012,0,0,1,32,144.106v-4.235a1.012,1.012,0,0,1,2.025,0v4.235A1.012,1.012,0,0,1,33.012,145.118Zm0-8.468A1.012,1.012,0,0,1,32,135.638V131.4a1.012,1.012,0,0,1,2.025,0v4.234A1.012,1.012,0,0,1,33.012,136.65Zm0-8.467A1.012,1.012,0,0,1,32,127.171v-4.234a1.012,1.012,0,1,1,2.025,0v4.234A1.012,1.012,0,0,1,33.012,128.183Zm0-8.468A1.012,1.012,0,0,1,32,118.7v-4.234a1.012,1.012,0,1,1,2.025,0V118.7a1.012,1.012,0,0,1-1.012,1.012Z" transform="translate(-27.95 -99.098)"/>
    <path id="Path_1221" data-name="Path 1221" class="cls-3" d="M10.124,5.069A5.062,5.062,0,1,0,4.05,10.03v1.114a1.012,1.012,0,1,0,2.025,0V10.03A5.071,5.071,0,0,0,10.124,5.069ZM5.062,8.106A3.037,3.037,0,1,1,8.1,5.069,3.037,3.037,0,0,1,5.062,8.106Z" transform="translate(0 -0.007)"/>
    <path id="Path_1222" data-name="Path 1222" class="cls-3" d="M225.211,49.263l-.81-1.071c-.667-.882-16.4-21.8-16.4-30.981a17.211,17.211,0,0,1,34.423,0c0,9.181-15.734,30.1-16.4,30.981Zm0-47.238a15.2,15.2,0,0,0-15.187,15.187c0,7.385,11.936,24.223,15.187,28.669C228.462,41.434,240.4,24.6,240.4,17.211A15.2,15.2,0,0,0,225.211,2.025Z" transform="translate(-181.677)"/>
    <path id="Path_1223" data-name="Path 1223" class="cls-3" d="M295.087,94.174a7.087,7.087,0,1,1,7.087-7.087A7.087,7.087,0,0,1,295.087,94.174Zm0-12.149a5.062,5.062,0,1,0,5.062,5.062A5.062,5.062,0,0,0,295.087,82.025Z" transform="translate(-251.552 -69.876)"/>
  </g>
</svg>
